<svg width="1584" height="396" viewBox="0 0 1584 396" fill="none" xmlns="http://www.w3.org/2000/svg">
<g clip-path="url(#clip0)">
<rect width="1584" height="396" fill="#0515A4"/>
<g filter="url(#filter0_d)">
<circle cx="100.61" cy="73.7411" r="16.7067" fill="#FF584E"/>
</g>
<circle cx="163.698" cy="105.222" r="14.7741" fill="#4791E3"/>
<circle cx="113.713" cy="118.452" r="16.2642" fill="#41B883"/>
<g filter="url(#filter1_d)">
<circle cx="147.118" cy="159.984" r="13.546" fill="#FF5733"/>
</g>
<g opacity="0.85">
<circle cx="97.9593" cy="165.912" r="14.9593" fill="#D169E2"/>
</g>
<path d="M252.328 124V57.2634H264.285L290.146 88.0364L315.914 57.2634H327.963V124H317.86V70.7034L290.146 103.701L262.339 70.7034V124H252.328ZM349.637 124C346.3 124 343.457 122.826 341.109 120.478C338.761 118.13 337.587 115.287 337.587 111.95V92.1148H382.171V83.68C382.171 82.3206 381.954 81.4246 381.522 80.992C381.089 80.4977 380.193 80.2505 378.834 80.2505H337.587V70.24H380.224C383.561 70.24 386.404 71.4141 388.752 73.7622C391.1 76.1103 392.274 78.9528 392.274 82.2897V124H349.637ZM351.027 113.99H382.171V101.476H347.597V110.56C347.597 111.919 347.814 112.846 348.246 113.341C348.741 113.773 349.668 113.99 351.027 113.99ZM400.768 124V82.2897C400.768 78.9528 401.942 76.1103 404.29 73.7622C406.638 71.4141 409.481 70.24 412.818 70.24H442.849V80.2505H414.208C412.849 80.2505 411.922 80.4977 411.427 80.992C410.995 81.4246 410.778 82.3206 410.778 83.68V124H400.768ZM460.609 124C457.272 124 454.429 122.826 452.081 120.478C449.733 118.13 448.559 115.287 448.559 111.95V82.2897C448.559 78.9528 449.733 76.1103 452.081 73.7622C454.429 71.4141 457.272 70.24 460.609 70.24H503.06V80.2505H461.999C460.639 80.2505 459.713 80.4977 459.218 80.992C458.786 81.4246 458.569 82.3206 458.569 83.68V110.56C458.569 111.919 458.786 112.846 459.218 113.341C459.713 113.773 460.639 113.99 461.999 113.99H503.246V124H460.609Z" fill="#81FFCA"/>
<path d="M553.663 127.862V61.1257H563.673V89.396H611.872V61.1257H621.975V127.862H611.872V99.4992H563.673V127.862H553.663ZM643.997 127.862C640.66 127.862 637.817 126.688 635.469 124.34C633.121 121.992 631.947 119.149 631.947 115.813V86.1519C631.947 82.815 633.121 79.9726 635.469 77.6244C637.817 75.2763 640.66 74.1022 643.997 74.1022H674.584C677.921 74.1022 680.764 75.2763 683.112 77.6244C685.46 79.9726 686.634 82.815 686.634 86.1519V105.987H641.958V114.422C641.958 115.782 642.174 116.709 642.606 117.203C643.101 117.635 644.028 117.852 645.387 117.852H686.634V127.862H643.997ZM641.958 96.6258H676.531V87.5422C676.531 86.1828 676.314 85.2868 675.882 84.8542C675.449 84.3599 674.553 84.1127 673.194 84.1127H645.387C644.028 84.1127 643.101 84.3599 642.606 84.8542C642.174 85.2868 641.958 86.1828 641.958 87.5422V96.6258ZM706.184 127.862C702.847 127.862 700.005 126.688 697.657 124.34C695.309 121.992 694.135 119.149 694.135 115.813V56.4912H704.145V114.422C704.145 115.782 704.361 116.709 704.794 117.203C705.288 117.635 706.215 117.852 707.575 117.852H716.195V127.862H706.184ZM735.514 127.862C732.177 127.862 729.335 126.688 726.987 124.34C724.638 121.992 723.464 119.149 723.464 115.813V57.14H733.475V74.1022H755.535V84.1127H733.475V114.422C733.475 115.782 733.691 116.709 734.124 117.203C734.618 117.635 735.545 117.852 736.904 117.852H755.535V127.862H735.514ZM763.837 127.862V115.998L805.177 84.1127H763.837V74.1022H818.524V85.9665L777.184 117.852H818.524V127.862H763.837ZM837.975 127.862C834.638 127.862 831.796 126.688 829.448 124.34C827.1 121.992 825.925 119.149 825.925 115.813V86.1519C825.925 82.815 827.1 79.9726 829.448 77.6244C831.796 75.2763 834.638 74.1022 837.975 74.1022H868.563C871.9 74.1022 874.742 75.2763 877.09 77.6244C879.438 79.9726 880.612 82.815 880.612 86.1519V105.987H835.936V114.422C835.936 115.782 836.152 116.709 836.585 117.203C837.079 117.635 838.006 117.852 839.365 117.852H880.612V127.862H837.975ZM835.936 96.6258H870.509V87.5422C870.509 86.1828 870.293 85.2868 869.86 84.8542C869.428 84.3599 868.532 84.1127 867.172 84.1127H839.365C838.006 84.1127 837.079 84.3599 836.585 84.8542C836.152 85.2868 835.936 86.1828 835.936 87.5422V96.6258ZM900.163 127.862C896.826 127.862 893.983 126.688 891.635 124.34C889.287 121.992 888.113 119.149 888.113 115.813V56.4912H898.123V114.422C898.123 115.782 898.34 116.709 898.772 117.203C899.267 117.635 900.194 117.852 901.553 117.852H910.173V127.862H900.163Z" fill="#81FFCA"/>
<path d="M275.351 178.777C275.467 179.055 275.525 179.286 275.525 179.472C275.525 179.912 275.34 180.283 274.969 180.584C274.621 180.885 274.227 181.036 273.787 181.036C273.486 181.036 273.196 180.955 272.918 180.793C272.663 180.607 272.466 180.352 272.327 180.028L270.033 174.814H257.312L255.017 180.028C254.878 180.352 254.67 180.607 254.392 180.793C254.114 180.955 253.824 181.036 253.523 181.036C253.059 181.036 252.642 180.885 252.272 180.584C251.924 180.283 251.75 179.912 251.75 179.472C251.75 179.286 251.808 179.055 251.924 178.777L261.726 157.331C261.888 156.96 262.143 156.67 262.491 156.462C262.861 156.253 263.244 156.149 263.638 156.149C264.032 156.149 264.402 156.253 264.75 156.462C265.121 156.67 265.387 156.96 265.549 157.331L275.351 178.777ZM268.782 171.964L263.672 160.459L258.598 171.964H268.782ZM280.613 181.036C280.103 181.036 279.674 180.897 279.327 180.619C279.002 180.341 278.84 179.924 278.84 179.368V157.887C278.84 157.331 279.002 156.913 279.327 156.635C279.674 156.334 280.103 156.184 280.613 156.184C281.123 156.184 281.54 156.334 281.864 156.635C282.189 156.913 282.351 157.331 282.351 157.887V179.368C282.351 179.924 282.189 180.341 281.864 180.619C281.54 180.897 281.123 181.036 280.613 181.036ZM289.031 181.036C288.521 181.036 288.092 180.897 287.745 180.619C287.42 180.341 287.258 179.924 287.258 179.368V157.887C287.258 157.331 287.42 156.913 287.745 156.635C288.092 156.334 288.521 156.184 289.031 156.184C289.541 156.184 289.958 156.334 290.282 156.635C290.607 156.913 290.769 157.331 290.769 157.887V179.368C290.769 179.924 290.607 180.341 290.282 180.619C289.958 180.897 289.541 181.036 289.031 181.036ZM311.967 163.483C314.214 163.483 315.883 164.051 316.972 165.186C318.084 166.321 318.64 168.048 318.64 170.365V179.368C318.64 179.9 318.49 180.318 318.189 180.619C317.887 180.897 317.47 181.036 316.937 181.036C316.427 181.036 316.022 180.885 315.721 180.584C315.419 180.283 315.269 179.877 315.269 179.368V178.081C314.829 179.055 314.168 179.808 313.288 180.341C312.43 180.851 311.422 181.105 310.264 181.105C309.151 181.105 308.132 180.885 307.205 180.445C306.278 179.982 305.548 179.344 305.015 178.533C304.505 177.722 304.25 176.819 304.25 175.822C304.25 174.594 304.563 173.632 305.189 172.937C305.838 172.219 306.892 171.709 308.352 171.408C309.835 171.107 311.862 170.956 314.435 170.956H315.234V169.948C315.234 168.65 314.968 167.712 314.435 167.132C313.902 166.553 313.044 166.264 311.862 166.264C311.051 166.264 310.287 166.368 309.568 166.576C308.85 166.785 308.062 167.086 307.205 167.48C306.579 167.828 306.139 168.001 305.884 168.001C305.536 168.001 305.247 167.874 305.015 167.619C304.806 167.364 304.702 167.04 304.702 166.646C304.702 166.298 304.795 165.997 304.98 165.742C305.189 165.464 305.513 165.198 305.953 164.943C306.765 164.502 307.715 164.155 308.804 163.9C309.893 163.622 310.947 163.483 311.967 163.483ZM310.889 178.499C312.164 178.499 313.206 178.07 314.017 177.212C314.829 176.332 315.234 175.208 315.234 173.841V172.937H314.608C312.801 172.937 311.411 173.018 310.437 173.18C309.464 173.343 308.769 173.621 308.352 174.015C307.935 174.385 307.726 174.93 307.726 175.648C307.726 176.483 308.027 177.166 308.63 177.699C309.232 178.232 309.985 178.499 310.889 178.499ZM332.549 163.483C334.032 163.483 335.342 163.842 336.477 164.56C337.612 165.279 338.493 166.298 339.119 167.619C339.767 168.94 340.092 170.481 340.092 172.242C340.092 173.98 339.767 175.521 339.119 176.865C338.493 178.209 337.601 179.252 336.442 179.993C335.307 180.735 334.009 181.105 332.549 181.105C331.275 181.105 330.151 180.839 329.178 180.306C328.204 179.75 327.463 178.962 326.953 177.942V179.333C326.953 179.843 326.791 180.26 326.467 180.584C326.165 180.885 325.748 181.036 325.215 181.036C324.682 181.036 324.254 180.885 323.929 180.584C323.605 180.26 323.443 179.843 323.443 179.333V157.852C323.443 157.342 323.605 156.937 323.929 156.635C324.277 156.334 324.717 156.184 325.25 156.184C325.76 156.184 326.165 156.334 326.467 156.635C326.791 156.913 326.953 157.296 326.953 157.782V166.681C327.463 165.661 328.204 164.873 329.178 164.317C330.151 163.761 331.275 163.483 332.549 163.483ZM331.715 178.325C333.221 178.325 334.391 177.792 335.226 176.726C336.083 175.66 336.512 174.165 336.512 172.242C336.512 170.342 336.095 168.882 335.26 167.862C334.426 166.82 333.244 166.298 331.715 166.298C330.186 166.298 329.004 166.82 328.17 167.862C327.359 168.905 326.953 170.388 326.953 172.312C326.953 174.235 327.359 175.718 328.17 176.761C329.004 177.803 330.186 178.325 331.715 178.325ZM351.347 181.105C349.679 181.105 348.208 180.746 346.933 180.028C345.682 179.31 344.709 178.29 344.013 176.969C343.341 175.625 343.005 174.073 343.005 172.312C343.005 170.527 343.341 168.975 344.013 167.654C344.709 166.31 345.682 165.279 346.933 164.56C348.208 163.842 349.679 163.483 351.347 163.483C353.016 163.483 354.476 163.842 355.727 164.56C357.002 165.279 357.975 166.31 358.647 167.654C359.342 168.975 359.69 170.527 359.69 172.312C359.69 174.073 359.342 175.625 358.647 176.969C357.975 178.29 357.002 179.31 355.727 180.028C354.476 180.746 353.016 181.105 351.347 181.105ZM351.347 178.325C352.9 178.325 354.082 177.815 354.893 176.795C355.727 175.776 356.144 174.281 356.144 172.312C356.144 170.365 355.727 168.882 354.893 167.862C354.059 166.82 352.877 166.298 351.347 166.298C349.818 166.298 348.636 166.82 347.802 167.862C346.968 168.882 346.551 170.365 346.551 172.312C346.551 174.281 346.956 175.776 347.767 176.795C348.602 177.815 349.795 178.325 351.347 178.325ZM376.737 163.552C377.27 163.552 377.687 163.703 377.988 164.004C378.313 164.305 378.475 164.723 378.475 165.256V179.402C378.475 179.889 378.313 180.283 377.988 180.584C377.664 180.885 377.235 181.036 376.702 181.036C376.216 181.036 375.822 180.897 375.52 180.619C375.219 180.318 375.069 179.924 375.069 179.437V178.116C374.536 179.089 373.794 179.831 372.844 180.341C371.917 180.851 370.874 181.105 369.716 181.105C365.591 181.105 363.529 178.835 363.529 174.293V165.256C363.529 164.723 363.679 164.305 363.981 164.004C364.305 163.703 364.745 163.552 365.301 163.552C365.834 163.552 366.251 163.703 366.553 164.004C366.877 164.305 367.039 164.723 367.039 165.256V174.258C367.039 175.625 367.317 176.633 367.874 177.282C368.43 177.931 369.287 178.255 370.446 178.255C371.813 178.255 372.902 177.815 373.713 176.934C374.547 176.054 374.964 174.884 374.964 173.424V165.256C374.964 164.746 375.126 164.34 375.451 164.039C375.775 163.715 376.204 163.552 376.737 163.552ZM391.695 178.36C392.205 178.406 392.564 178.545 392.772 178.777C393.004 178.985 393.12 179.286 393.12 179.68C393.12 180.144 392.935 180.503 392.564 180.758C392.216 180.99 391.695 181.082 391 181.036L390.061 180.966C388.184 180.827 386.782 180.26 385.855 179.263C384.929 178.244 384.465 176.749 384.465 174.779V166.611H382.38C381.36 166.611 380.85 166.159 380.85 165.256C380.85 164.838 380.978 164.514 381.233 164.282C381.511 164.027 381.893 163.9 382.38 163.9H384.465V160.32C384.465 159.787 384.616 159.37 384.917 159.068C385.241 158.767 385.67 158.617 386.203 158.617C386.736 158.617 387.165 158.767 387.489 159.068C387.813 159.37 387.976 159.787 387.976 160.32V163.9H391.417C391.903 163.9 392.274 164.027 392.529 164.282C392.807 164.514 392.946 164.838 392.946 165.256C392.946 165.696 392.807 166.032 392.529 166.264C392.274 166.495 391.903 166.611 391.417 166.611H387.976V175.023C387.976 176.112 388.196 176.911 388.636 177.421C389.1 177.931 389.795 178.22 390.722 178.29L391.695 178.36ZM427.886 164.63C428.141 163.935 428.616 163.587 429.311 163.587C429.751 163.587 430.145 163.738 430.493 164.039C430.84 164.34 431.014 164.711 431.014 165.151C431.014 165.383 430.968 165.592 430.875 165.777L425.105 179.854C424.966 180.225 424.734 180.515 424.41 180.723C424.086 180.908 423.726 181.001 423.333 181.001C422.962 181.001 422.614 180.908 422.29 180.723C421.965 180.515 421.734 180.225 421.595 179.854L417.076 168.697L412.662 179.854C412.523 180.225 412.291 180.515 411.966 180.723C411.665 180.908 411.318 181.001 410.924 181.001C410.553 181.001 410.194 180.908 409.846 180.723C409.522 180.515 409.278 180.225 409.116 179.854L403.381 165.777C403.288 165.592 403.242 165.395 403.242 165.186C403.242 164.723 403.427 164.34 403.798 164.039C404.192 163.738 404.621 163.587 405.084 163.587C405.779 163.587 406.254 163.923 406.509 164.595L410.993 176.448L415.581 164.699C415.72 164.329 415.941 164.051 416.242 163.865C416.543 163.68 416.867 163.587 417.215 163.587C417.539 163.587 417.852 163.68 418.153 163.865C418.455 164.051 418.675 164.329 418.814 164.699L423.402 176.378L427.886 164.63ZM447.31 176.587C447.634 176.587 447.901 176.714 448.109 176.969C448.318 177.224 448.422 177.548 448.422 177.942C448.422 178.614 448.005 179.182 447.171 179.646C446.36 180.109 445.468 180.468 444.494 180.723C443.544 180.978 442.629 181.105 441.748 181.105C439.06 181.105 436.94 180.329 435.388 178.777C433.835 177.201 433.059 175.057 433.059 172.346C433.059 170.608 433.395 169.067 434.067 167.723C434.762 166.379 435.724 165.337 436.952 164.595C438.203 163.854 439.617 163.483 441.192 163.483C443.463 163.483 445.259 164.213 446.58 165.673C447.901 167.132 448.561 169.102 448.561 171.582C448.561 172.508 448.144 172.972 447.31 172.972H436.569C436.801 176.564 438.527 178.36 441.748 178.36C442.606 178.36 443.347 178.244 443.973 178.012C444.599 177.78 445.259 177.479 445.954 177.108C446.024 177.062 446.209 176.969 446.51 176.83C446.835 176.668 447.101 176.587 447.31 176.587ZM441.262 166.055C439.918 166.055 438.84 166.484 438.029 167.341C437.218 168.198 436.732 169.403 436.569 170.956H445.537C445.468 169.38 445.062 168.175 444.321 167.341C443.602 166.484 442.583 166.055 441.262 166.055ZM461.536 163.483C463.019 163.483 464.329 163.842 465.464 164.56C466.6 165.279 467.48 166.298 468.106 167.619C468.755 168.94 469.079 170.481 469.079 172.242C469.079 173.98 468.755 175.521 468.106 176.865C467.48 178.209 466.588 179.252 465.429 179.993C464.294 180.735 462.996 181.105 461.536 181.105C460.262 181.105 459.138 180.839 458.165 180.306C457.192 179.75 456.45 178.962 455.94 177.942V179.333C455.94 179.843 455.778 180.26 455.454 180.584C455.152 180.885 454.735 181.036 454.202 181.036C453.669 181.036 453.241 180.885 452.916 180.584C452.592 180.26 452.43 179.843 452.43 179.333V157.852C452.43 157.342 452.592 156.937 452.916 156.635C453.264 156.334 453.704 156.184 454.237 156.184C454.747 156.184 455.152 156.334 455.454 156.635C455.778 156.913 455.94 157.296 455.94 157.782V166.681C456.45 165.661 457.192 164.873 458.165 164.317C459.138 163.761 460.262 163.483 461.536 163.483ZM460.702 178.325C462.208 178.325 463.379 177.792 464.213 176.726C465.07 175.66 465.499 174.165 465.499 172.242C465.499 170.342 465.082 168.882 464.248 167.862C463.413 166.82 462.232 166.298 460.702 166.298C459.173 166.298 457.991 166.82 457.157 167.862C456.346 168.905 455.94 170.388 455.94 172.312C455.94 174.235 456.346 175.718 457.157 176.761C457.991 177.803 459.173 178.325 460.702 178.325ZM486.834 156.184C487.367 156.184 487.796 156.334 488.12 156.635C488.445 156.937 488.607 157.342 488.607 157.852V179.333C488.607 179.866 488.445 180.283 488.12 180.584C487.819 180.885 487.402 181.036 486.869 181.036C486.336 181.036 485.907 180.885 485.583 180.584C485.282 180.283 485.131 179.866 485.131 179.333V177.942C484.621 178.962 483.88 179.75 482.907 180.306C481.933 180.839 480.81 181.105 479.535 181.105C478.075 181.105 476.766 180.735 475.607 179.993C474.472 179.252 473.58 178.209 472.931 176.865C472.305 175.521 471.992 173.98 471.992 172.242C471.992 170.481 472.305 168.94 472.931 167.619C473.58 166.298 474.472 165.279 475.607 164.56C476.743 163.842 478.052 163.483 479.535 163.483C480.81 163.483 481.922 163.761 482.872 164.317C483.845 164.85 484.587 165.615 485.096 166.611V157.782C485.096 157.296 485.247 156.913 485.548 156.635C485.873 156.334 486.301 156.184 486.834 156.184ZM480.369 178.325C481.875 178.325 483.046 177.803 483.88 176.761C484.714 175.718 485.131 174.235 485.131 172.312C485.131 170.388 484.714 168.905 483.88 167.862C483.069 166.82 481.899 166.298 480.369 166.298C478.84 166.298 477.646 166.82 476.789 167.862C475.955 168.882 475.538 170.342 475.538 172.242C475.538 174.142 475.966 175.637 476.824 176.726C477.681 177.792 478.863 178.325 480.369 178.325ZM506.78 176.587C507.104 176.587 507.37 176.714 507.579 176.969C507.788 177.224 507.892 177.548 507.892 177.942C507.892 178.614 507.475 179.182 506.641 179.646C505.829 180.109 504.937 180.468 503.964 180.723C503.014 180.978 502.099 181.105 501.218 181.105C498.53 181.105 496.41 180.329 494.857 178.777C493.305 177.201 492.529 175.057 492.529 172.346C492.529 170.608 492.865 169.067 493.537 167.723C494.232 166.379 495.193 165.337 496.421 164.595C497.673 163.854 499.086 163.483 500.662 163.483C502.933 163.483 504.729 164.213 506.05 165.673C507.37 167.132 508.031 169.102 508.031 171.582C508.031 172.508 507.614 172.972 506.78 172.972H496.039C496.271 176.564 497.997 178.36 501.218 178.36C502.076 178.36 502.817 178.244 503.443 178.012C504.068 177.78 504.729 177.479 505.424 177.108C505.493 177.062 505.679 176.969 505.98 176.83C506.305 176.668 506.571 176.587 506.78 176.587ZM500.732 166.055C499.388 166.055 498.31 166.484 497.499 167.341C496.688 168.198 496.201 169.403 496.039 170.956H505.007C504.937 169.38 504.532 168.175 503.79 167.341C503.072 166.484 502.052 166.055 500.732 166.055ZM523.723 164.595C523.862 164.248 524.059 163.993 524.314 163.83C524.592 163.668 524.882 163.587 525.183 163.587C525.623 163.587 526.006 163.738 526.33 164.039C526.678 164.34 526.851 164.699 526.851 165.116C526.851 165.348 526.805 165.568 526.712 165.777L520.073 179.854C519.911 180.225 519.656 180.515 519.309 180.723C518.984 180.908 518.637 181.001 518.266 181.001C517.895 181.001 517.536 180.908 517.188 180.723C516.864 180.515 516.621 180.225 516.458 179.854L509.82 165.777C509.727 165.592 509.681 165.371 509.681 165.116C509.681 164.699 509.866 164.34 510.237 164.039C510.607 163.738 511.025 163.587 511.488 163.587C512.16 163.587 512.658 163.912 512.983 164.56L518.37 176.517L523.723 164.595Z" fill="#81FFCA"/>
<g opacity="0.9">
<g style="mix-blend-mode:multiply" opacity="0.2" filter="url(#filter2_f)">
<rect width="184.065" height="180.908" rx="90.4541" transform="matrix(0.866564 0.499066 -0.866564 0.499066 1389.77 258.809)" fill="url(#paint0_linear)"/>
</g>
<path fill-rule="evenodd" clip-rule="evenodd" d="M1486.1 214.768H1286.56L1270.89 271.952C1263.07 293.409 1273.62 316.644 1302.55 333.303C1348.09 359.529 1421.92 359.529 1467.46 333.303C1495.73 317.021 1506.45 294.457 1499.61 273.411L1486.1 214.768Z" fill="url(#paint1_linear)"/>
<rect width="163.115" height="163.115" rx="81.5577" transform="matrix(0.866564 0.499066 -0.866564 0.499066 1386.31 136.473)" fill="url(#paint2_linear)"/>
<g style="mix-blend-mode:multiply">
<rect width="127.29" height="129.949" rx="63.6451" transform="matrix(0.866564 0.499066 -0.866564 0.499066 1389.17 152.949)" fill="url(#paint3_linear)"/>
</g>
<g style="mix-blend-mode:soft-light" filter="url(#filter3_f)">
<path fill-rule="evenodd" clip-rule="evenodd" d="M1425.56 207.794H1349.98V63.4464H1350.2L1350.03 63.3606L1387.78 44.1789L1425.53 63.3606L1425.36 63.4464H1425.7L1425.56 207.794Z" fill="url(#paint4_linear)"/>
</g>
<path opacity="0.5" d="M1386.03 110.609L1414.28 91.4271L1386.03 72.2454L1357.78 91.4271L1386.03 110.609Z" fill="url(#paint5_linear)"/>
<path fill-rule="evenodd" clip-rule="evenodd" d="M1414.23 214.668H1357.8V89.4783L1357.8 89.4782L1357.8 89.4782V89.4768H1357.8L1386.05 65.9461L1414.3 89.4768H1414.34L1414.23 214.668Z" fill="url(#paint6_linear)"/>
<path fill-rule="evenodd" clip-rule="evenodd" d="M1382.24 145.358H1388.09V235.075H1388.03L1385.16 237.58L1382.28 235.075H1382.22L1382.22 235.03L1382.22 235.029L1382.22 235.029L1382.24 145.358Z" fill="url(#paint7_linear)"/>
<path fill-rule="evenodd" clip-rule="evenodd" d="M1382.24 145.358H1388.09V235.075H1388.03L1385.16 237.58L1382.28 235.075H1382.22L1382.22 235.03L1382.22 235.029L1382.22 235.029L1382.24 145.358Z" fill="url(#paint8_linear)"/>
<path fill-rule="evenodd" clip-rule="evenodd" d="M1399.33 81.2032H1402.25V164.233H1402.23L1400.79 166.552L1399.35 164.233H1399.32L1399.32 164.192L1399.32 164.192L1399.32 164.191L1399.33 81.2032Z" fill="url(#paint9_linear)"/>
<path fill-rule="evenodd" clip-rule="evenodd" d="M1399.33 81.2032H1402.25V164.233H1402.23L1400.79 166.552L1399.35 164.233H1399.32L1399.32 164.192L1399.32 164.192L1399.32 164.191L1399.33 81.2032Z" fill="url(#paint10_linear)"/>
<path fill-rule="evenodd" clip-rule="evenodd" d="M1368.06 125.31H1370.99V196.638H1370.96L1369.52 198.629L1368.08 196.638H1368.06L1368.06 196.601L1368.06 196.601L1368.06 196.601L1368.06 125.31Z" fill="url(#paint11_linear)"/>
<path fill-rule="evenodd" clip-rule="evenodd" d="M1368.06 125.31H1370.99V196.638H1370.96L1369.52 198.629L1368.08 196.638H1368.06L1368.06 196.601L1368.06 196.601L1368.06 196.601L1368.06 125.31Z" fill="url(#paint12_linear)"/>
<path fill-rule="evenodd" clip-rule="evenodd" d="M1429.13 156.195H1434.99V190.952H1434.93L1434.99 190.99L1432.37 193.474L1429.12 190.99L1429.19 190.952H1429.12L1429.13 156.195Z" fill="url(#paint13_linear)"/>
<path fill-rule="evenodd" clip-rule="evenodd" d="M1429.13 156.195H1434.99V190.952H1434.93L1434.99 190.99L1432.37 193.474L1429.12 190.99L1429.19 190.952H1429.12L1429.13 156.195Z" fill="url(#paint14_linear)"/>
<path fill-rule="evenodd" clip-rule="evenodd" d="M1336.31 110.416H1342.16V153.141H1342.11L1342.16 153.188L1339.55 156.242L1336.3 153.188L1336.37 153.141H1336.3L1336.31 110.416Z" fill="url(#paint15_linear)"/>
<path fill-rule="evenodd" clip-rule="evenodd" d="M1336.31 110.416H1342.16V153.141H1342.11L1342.16 153.188L1339.55 156.242L1336.3 153.188L1336.37 153.141H1336.3L1336.31 110.416Z" fill="url(#paint16_linear)"/>
<g filter="url(#filter4_d)">
<path fill-rule="evenodd" clip-rule="evenodd" d="M1438.43 165.899C1435.04 167.01 1430.32 165.502 1427.9 162.529C1426.8 161.176 1426.36 159.753 1426.53 158.499L1426.52 158.496L1426.54 158.372C1426.57 158.212 1426.61 158.054 1426.66 157.899L1427.09 156.082L1427.67 156.27C1428.18 155.789 1428.84 155.399 1429.65 155.133C1433.04 154.022 1437.75 155.53 1440.18 158.503C1440.76 159.212 1441.15 159.941 1441.37 160.654L1441.96 160.843L1441.53 162.682C1441.5 162.828 1441.47 162.971 1441.43 163.111L1441.39 163.256L1441.38 163.253C1440.97 164.431 1439.97 165.392 1438.43 165.899Z" fill="url(#paint17_radial)"/>
<ellipse rx="6.70769" ry="6.70769" transform="matrix(-0.915218 0.300125 0.65451 0.802445 1434.45 158.77)" fill="url(#paint18_radial)"/>
<g style="mix-blend-mode:overlay">
<ellipse rx="5.3205" ry="5.7059" transform="matrix(-0.915218 0.300125 0.65451 0.802445 1434.51 158.589)" fill="url(#paint19_radial)"/>
</g>
</g>
<g filter="url(#filter5_d)">
<path fill-rule="evenodd" clip-rule="evenodd" d="M1352.73 128.044C1355.02 128.796 1358.21 127.776 1359.85 125.765C1360.59 124.85 1360.89 123.887 1360.78 123.039L1360.78 123.037L1360.76 122.954C1360.74 122.845 1360.72 122.739 1360.69 122.634L1360.4 121.404L1360 121.532C1359.66 121.207 1359.21 120.943 1358.66 120.763C1356.37 120.011 1353.18 121.032 1351.54 123.042C1351.15 123.522 1350.88 124.014 1350.73 124.496L1350.33 124.624L1350.63 125.869C1350.65 125.967 1350.67 126.064 1350.7 126.159L1350.72 126.256L1350.73 126.254C1351 127.051 1351.68 127.702 1352.73 128.044Z" fill="url(#paint20_radial)"/>
<ellipse rx="4.5366" ry="4.5366" transform="matrix(0.915221 0.300116 -0.654516 0.802439 1355.42 123.222)" fill="url(#paint21_radial)"/>
<g style="mix-blend-mode:overlay">
<ellipse rx="3.59843" ry="3.8591" transform="matrix(0.915218 0.300125 -0.65451 0.802445 1355.37 123.1)" fill="url(#paint22_radial)"/>
</g>
</g>
<g filter="url(#filter6_d)">
<path fill-rule="evenodd" clip-rule="evenodd" d="M1421.15 81.2903C1424.91 82.521 1430.12 80.8512 1432.81 77.5607C1434.03 76.0627 1434.52 74.4871 1434.33 73.0988L1434.34 73.0952L1434.31 72.9545C1434.28 72.7799 1434.24 72.6084 1434.18 72.4407L1433.71 70.4233L1433.06 70.632C1432.5 70.0997 1431.77 69.6678 1430.87 69.3743C1427.12 68.1436 1421.9 69.8134 1419.22 73.1039C1418.58 73.8886 1418.14 74.6947 1417.89 75.4839L1417.24 75.6929L1417.72 77.7249C1417.75 77.8894 1417.79 78.0512 1417.84 78.2096L1417.87 78.3649L1417.88 78.361C1418.33 79.6652 1419.44 80.73 1421.15 81.2903Z" fill="url(#paint23_radial)"/>
<ellipse rx="7.42478" ry="7.42478" transform="matrix(0.915221 0.300116 -0.654516 0.802439 1425.56 73.3999)" fill="url(#paint24_radial)"/>
<g style="mix-blend-mode:overlay">
<ellipse rx="5.88933" ry="6.31594" transform="matrix(0.915218 0.300125 -0.65451 0.802445 1425.49 73.1986)" fill="url(#paint25_radial)"/>
</g>
</g>
<g filter="url(#filter7_d)">
<path fill-rule="evenodd" clip-rule="evenodd" d="M1394.75 39.4018C1387.82 37.75 1378.18 39.9911 1373.23 44.4073C1370.97 46.4176 1370.07 48.5321 1370.42 50.3952L1370.4 50.3999L1370.46 50.5832C1370.51 50.8217 1370.59 51.0557 1370.69 51.2846L1371.57 53.986L1372.77 53.706C1373.8 54.4205 1375.15 55.0004 1376.8 55.3943C1383.73 57.046 1393.37 54.805 1398.33 50.3887C1399.51 49.3354 1400.32 48.2535 1400.77 47.1942L1401.98 46.9136L1401.09 44.1804C1401.04 43.964 1400.97 43.7512 1400.88 43.5427L1400.81 43.3275L1400.79 43.3329C1399.96 41.5826 1397.91 40.1536 1394.75 39.4018Z" fill="url(#paint26_radial)"/>
<circle r="12.4681" transform="matrix(-1.0065 -0.239868 0.719792 -0.641336 1386.62 49.9924)" fill="url(#paint27_radial)"/>
<g style="mix-blend-mode:overlay">
<ellipse rx="9.88966" ry="10.606" transform="matrix(-1.0065 -0.239868 0.719792 -0.641336 1386.75 50.2619)" fill="url(#paint28_radial)"/>
</g>
</g>
<g filter="url(#filter8_d)">
<path fill-rule="evenodd" clip-rule="evenodd" d="M1394.75 39.4018C1387.82 37.75 1378.18 39.9911 1373.23 44.4073C1370.97 46.4176 1370.07 48.5321 1370.42 50.3952L1370.4 50.3999L1370.46 50.5832C1370.51 50.8217 1370.59 51.0557 1370.69 51.2846L1371.57 53.986L1372.77 53.706C1373.8 54.4205 1375.15 55.0004 1376.8 55.3943C1383.73 57.046 1393.37 54.805 1398.33 50.3887C1399.51 49.3354 1400.32 48.2535 1400.77 47.1942L1401.98 46.9136L1401.09 44.1804C1401.04 43.964 1400.97 43.7512 1400.88 43.5427L1400.81 43.3275L1400.79 43.3329C1399.96 41.5826 1397.91 40.1536 1394.75 39.4018Z" fill="url(#paint29_radial)"/>
<circle r="12.4681" transform="matrix(-1.0065 -0.239868 0.719792 -0.641336 1386.62 49.9924)" fill="url(#paint30_radial)"/>
<g style="mix-blend-mode:overlay">
<ellipse rx="9.88966" ry="10.606" transform="matrix(-1.0065 -0.239868 0.719792 -0.641336 1386.75 50.2619)" fill="url(#paint31_radial)"/>
</g>
</g>
<g filter="url(#filter9_d)">
<path fill-rule="evenodd" clip-rule="evenodd" d="M1417.81 117.563C1409.2 115.512 1397.23 118.296 1391.08 123.781C1388.27 126.278 1387.16 128.905 1387.59 131.219L1387.56 131.225L1387.64 131.453C1387.7 131.749 1387.8 132.04 1387.92 132.325L1389.01 135.679L1390.51 135.332C1391.79 136.219 1393.46 136.94 1395.52 137.429C1404.13 139.481 1416.1 136.697 1422.25 131.211C1423.72 129.903 1424.73 128.559 1425.29 127.243L1426.79 126.894L1425.68 123.499C1425.62 123.23 1425.53 122.966 1425.43 122.707L1425.34 122.44L1425.31 122.446C1424.28 120.272 1421.73 118.497 1417.81 117.563Z" fill="url(#paint32_radial)"/>
<ellipse rx="15.4879" ry="15.4879" transform="matrix(-1.0065 -0.239868 0.719792 -0.641336 1407.71 130.717)" fill="url(#paint33_radial)"/>
<g style="mix-blend-mode:overlay">
<ellipse rx="12.2849" ry="13.1748" transform="matrix(-1.0065 -0.239868 0.719792 -0.641336 1407.87 131.053)" fill="url(#paint34_radial)"/>
</g>
</g>
<g filter="url(#filter10_d)">
<path fill-rule="evenodd" clip-rule="evenodd" d="M1375.36 185.771C1366.09 183.561 1353.19 186.56 1346.56 192.47C1343.54 195.16 1342.34 197.99 1342.8 200.483L1342.78 200.49L1342.86 200.735C1342.93 201.054 1343.03 201.366 1343.16 201.672L1344.34 205.288L1345.95 204.914C1347.33 205.87 1349.13 206.645 1351.35 207.173C1360.62 209.383 1373.52 206.384 1380.15 200.474C1381.73 199.065 1382.81 197.617 1383.42 196.2L1385.03 195.824L1383.84 192.167C1383.77 191.877 1383.68 191.592 1383.57 191.312L1383.47 191.025L1383.44 191.033C1382.33 188.69 1379.59 186.778 1375.36 185.771Z" fill="url(#paint35_radial)"/>
<ellipse rx="16.6848" ry="16.6848" transform="matrix(-1.0065 -0.239868 0.719792 -0.641336 1364.48 199.943)" fill="url(#paint36_radial)"/>
<g style="mix-blend-mode:overlay">
<ellipse rx="13.2343" ry="14.1929" transform="matrix(-1.0065 -0.239868 0.719792 -0.641336 1364.65 200.304)" fill="url(#paint37_radial)"/>
</g>
</g>
<g filter="url(#filter11_d)">
<path fill-rule="evenodd" clip-rule="evenodd" d="M1347.65 80.6448C1342.03 79.306 1334.22 81.1224 1330.21 84.7018C1328.38 86.3312 1327.65 88.0451 1327.93 89.5552L1327.91 89.559L1327.96 89.7092C1328.01 89.9012 1328.07 90.0896 1328.15 90.274L1328.86 92.4655L1329.83 92.2385C1330.67 92.8176 1331.76 93.2874 1333.1 93.6067C1338.72 94.9454 1346.53 93.129 1350.55 89.5497C1351.51 88.6961 1352.16 87.8193 1352.53 86.9608L1353.51 86.7333L1352.79 84.52C1352.74 84.3431 1352.69 84.1693 1352.62 83.9989L1352.56 83.8269L1352.54 83.8312C1351.87 82.4124 1350.21 81.2542 1347.65 80.6448Z" fill="url(#paint38_radial)"/>
<circle r="10.1054" transform="matrix(-1.0065 -0.239868 0.719792 -0.641336 1341.06 89.2286)" fill="url(#paint39_radial)"/>
<g style="mix-blend-mode:overlay">
<ellipse rx="8.01556" ry="8.59619" transform="matrix(-1.0065 -0.239868 0.719792 -0.641336 1341.16 89.447)" fill="url(#paint40_radial)"/>
</g>
</g>
<path fill-rule="evenodd" clip-rule="evenodd" d="M1459.4 90.4939H1313.48V221.658C1313.44 230.78 1320.55 239.909 1334.81 246.869C1363.24 260.747 1409.34 260.747 1437.77 246.869C1453.96 238.967 1460.93 228.27 1458.69 217.96L1459.4 217.941V90.4939Z" fill="url(#paint41_linear)"/>
<g filter="url(#filter12_d)">
<circle cx="1357.79" cy="65.0957" r="22.5597" fill="url(#paint42_radial)"/>
<g filter="url(#filter13_d)">
<path d="M1371.66 58.5253C1371.67 58.5441 1371.67 58.5724 1371.67 58.6007V62.6424C1371.67 62.7366 1371.6 62.8496 1371.5 62.8967L1367.3 64.8563V68.7285C1367.3 68.8321 1367.24 68.9263 1367.12 68.9828L1358.37 73.0622C1358.34 73.0716 1358.32 73.0999 1358.3 73.0999H1358.04C1358.04 73.0999 1358.04 73.0716 1357.99 73.0622L1349.24 68.9828C1349.18 68.9561 1349.14 68.9187 1349.11 68.8741C1349.08 68.8296 1349.06 68.7794 1349.06 68.7285V56.6128C1349.06 56.5657 1349.06 56.5374 1349.08 56.5186C1349.08 56.5092 1349.09 56.4997 1349.09 56.4903C1349.09 56.4715 1349.1 56.4621 1349.11 56.4432C1349.11 56.4338 1349.12 56.4244 1349.13 56.415L1349.17 56.3867L1349.2 56.3584C1349.22 56.349 1349.23 56.3396 1349.24 56.3396L1353.62 54.2952C1353.73 54.2575 1353.87 54.2575 1353.97 54.2952L1358.37 56.3396C1358.38 56.349 1358.39 56.349 1358.4 56.3584L1358.44 56.3867L1358.47 56.415C1358.48 56.4244 1358.49 56.4338 1358.49 56.4432C1358.51 56.4621 1358.52 56.4715 1358.52 56.4903C1358.52 56.4997 1358.53 56.5092 1358.53 56.5186C1358.54 56.5469 1358.54 56.5657 1358.54 56.6128V64.1498L1362.2 62.4728V58.6007C1362.2 58.5724 1362.2 58.5441 1362.21 58.5253L1362.22 58.497C1362.22 58.497 1362.23 58.4688 1362.24 58.4499C1362.24 58.4405 1362.26 58.4311 1362.27 58.4217L1362.3 58.3934L1362.34 58.3651C1362.35 58.3557 1362.36 58.3463 1362.37 58.3463L1366.77 56.3019C1366.87 56.2454 1367.01 56.2454 1367.12 56.3019L1371.5 58.3463C1371.51 58.3463 1371.52 58.3557 1371.53 58.3651L1371.57 58.3934L1371.6 58.4217C1371.62 58.4311 1371.62 58.4405 1371.63 58.4499C1371.64 58.4688 1371.64 58.497 1371.65 58.497C1371.66 58.497 1371.66 58.497 1371.66 58.5253ZM1370.95 62.4728V59.1094L1367.3 60.8052V64.1498L1370.95 62.4728ZM1366.57 68.5589V65.1861L1358.54 68.898V72.2991L1366.57 68.5589ZM1349.79 57.0839V68.5589L1357.82 72.2991V68.898L1353.63 66.9761H1353.62C1353.6 66.9761 1353.59 66.9761 1353.58 66.9478C1353.57 66.9478 1353.56 66.9384 1353.55 66.929L1353.51 66.9007C1353.5 66.8913 1353.5 66.8819 1353.49 66.8725C1353.48 66.8536 1353.48 66.8442 1353.46 66.8348C1353.46 66.816 1353.45 66.8065 1353.45 66.7971C1353.44 66.7877 1353.44 66.7688 1353.44 66.7594V58.7985L1349.79 57.0839ZM1353.8 54.8981L1350.16 56.6128L1353.8 58.2898L1357.46 56.6128L1353.8 54.8981ZM1357.82 64.5078V57.0839L1354.16 58.7985V66.213L1357.82 64.5078ZM1366.94 56.8954L1363.28 58.6007L1366.94 60.2965L1370.58 58.6007L1366.94 56.8954ZM1366.57 60.8052L1362.92 59.1094V62.4728L1366.57 64.1498V60.8052ZM1358.18 68.3893L1366.19 64.6773L1362.56 62.9815L1354.55 66.7217L1358.18 68.3893Z" fill="url(#paint43_radial)"/>
</g>
</g>
<g filter="url(#filter14_d)">
<g filter="url(#filter15_d)">
<circle cx="1442.98" cy="107.606" r="19.9501" fill="url(#paint44_radial)"/>
</g>
<g filter="url(#filter16_b)">
<path d="M1444.03 106.792L1440.93 99.4657H1447.13L1444.03 106.792ZM1444.03 114.628L1437.39 101.677H1440.86L1444.03 108.943L1447.19 101.677H1450.66L1444.03 114.628Z" fill="url(#paint45_radial)"/>
</g>
</g>
<g filter="url(#filter17_d)">
<g filter="url(#filter18_d)">
<circle cx="1375.48" cy="125.471" r="21.9622" fill="url(#paint46_radial)"/>
</g>
<g filter="url(#filter19_b)">
<path d="M1367.75 117.564H1370.67L1376.1 127.52L1381.52 117.564H1384.44L1376.1 132.498L1367.75 117.564ZM1371.51 117.564H1374.01L1376.1 121.364L1378.18 117.564H1380.69L1376.1 125.927L1371.51 117.564Z" fill="url(#paint47_radial)"/>
</g>
</g>
<g filter="url(#filter20_d)">
<circle cx="1420.59" cy="181.553" r="18.2917" fill="url(#paint48_radial)"/>
</g>
<g filter="url(#filter21_d)">
<rect x="1415.78" y="175.819" width="10.5725" height="10.6054" fill="white"/>
<path d="M1421.1 185.774L1424.67 184.901L1425.15 180.19H1418.8L1418.65 178.622H1425.31L1425.48 177.085H1416.72L1417.21 181.727H1423.25L1423.05 183.719L1421.1 184.183L1419.15 183.719L1419.03 182.437H1417.28L1417.53 184.901L1421.1 185.774ZM1414.15 174.529H1428.05L1426.8 187.04L1421.1 188.43L1415.4 187.04L1414.15 174.529Z" fill="url(#paint49_radial)"/>
</g>
<g opacity="0.85">
<g filter="url(#filter22_d)">
<circle cx="1354.21" cy="189.559" r="20.2001" fill="url(#paint50_radial)"/>
</g>
<g filter="url(#filter23_d)">
<rect x="1347.91" y="184.549" width="9.53445" height="10.1809" fill="white"/>
<path d="M1354.13 189.256H1352.54V186.715H1354.43C1355.4 186.715 1355.94 187.145 1355.94 187.936C1355.94 188.795 1355.3 189.256 1354.13 189.256ZM1354.41 190.123H1352.54V192.917H1354.5C1355.7 192.917 1356.33 192.434 1356.33 191.513C1356.33 190.592 1355.68 190.123 1354.41 190.123ZM1361.96 184.504V194.775C1361.96 196.164 1360.81 197.316 1359.42 197.316H1349.15C1347.76 197.316 1346.61 196.164 1346.61 194.775V184.504C1346.61 183.115 1347.76 181.964 1349.15 181.964H1359.42C1360.81 181.964 1361.96 183.115 1361.96 184.504ZM1357.36 191.559C1357.36 190.499 1356.65 189.74 1355.57 189.601V189.555C1356.34 189.417 1356.94 188.65 1356.94 187.82C1356.94 186.631 1356.02 185.84 1354.67 185.84H1351.55V193.792H1354.65C1356.35 193.792 1357.36 192.956 1357.36 191.559Z" fill="url(#paint51_radial)"/>
</g>
</g>
</g>
</g>
<defs>
<filter id="filter0_d" x="50.1487" y="23.28" width="100.922" height="100.922" filterUnits="userSpaceOnUse" color-interpolation-filters="sRGB">
<feFlood flood-opacity="0" result="BackgroundImageFix"/>
<feColorMatrix in="SourceAlpha" type="matrix" values="0 0 0 0 0 0 0 0 0 0 0 0 0 0 0 0 0 0 127 0"/>
<feOffset/>
<feGaussianBlur stdDeviation="16.8772"/>
<feColorMatrix type="matrix" values="0 0 0 0 1 0 0 0 0 1 0 0 0 0 1 0 0 0 0.4 0"/>
<feBlend mode="normal" in2="BackgroundImageFix" result="effect1_dropShadow"/>
<feBlend mode="normal" in="SourceGraphic" in2="effect1_dropShadow" result="shape"/>
</filter>
<filter id="filter1_d" x="43.2651" y="56.1311" width="207.705" height="207.705" filterUnits="userSpaceOnUse" color-interpolation-filters="sRGB">
<feFlood flood-opacity="0" result="BackgroundImageFix"/>
<feColorMatrix in="SourceAlpha" type="matrix" values="0 0 0 0 0 0 0 0 0 0 0 0 0 0 0 0 0 0 127 0"/>
<feOffset/>
<feGaussianBlur stdDeviation="45.1532"/>
<feColorMatrix type="matrix" values="0 0 0 0 1 0 0 0 0 0.788235 0 0 0 0 0.027451 0 0 0 1 0"/>
<feBlend mode="normal" in2="BackgroundImageFix" result="effect1_dropShadow"/>
<feBlend mode="normal" in="SourceGraphic" in2="effect1_dropShadow" result="shape"/>
</filter>
<filter id="filter2_f" x="1268.34" y="274.674" width="245.596" height="150.414" filterUnits="userSpaceOnUse" color-interpolation-filters="sRGB">
<feFlood flood-opacity="0" result="BackgroundImageFix"/>
<feBlend mode="normal" in="SourceGraphic" in2="BackgroundImageFix" result="shape"/>
<feGaussianBlur stdDeviation="5.28902" result="effect1_foregroundBlur"/>
</filter>
<filter id="filter3_f" x="1299.48" y="-6.32463" width="176.73" height="264.622" filterUnits="userSpaceOnUse" color-interpolation-filters="sRGB">
<feFlood flood-opacity="0" result="BackgroundImageFix"/>
<feBlend mode="normal" in="SourceGraphic" in2="BackgroundImageFix" result="shape"/>
<feGaussianBlur stdDeviation="25.2518" result="effect1_foregroundBlur"/>
</filter>
<filter id="filter4_d" x="1381.69" y="108.218" width="105.115" height="102.85" filterUnits="userSpaceOnUse" color-interpolation-filters="sRGB">
<feFlood flood-opacity="0" result="BackgroundImageFix"/>
<feColorMatrix in="SourceAlpha" type="matrix" values="0 0 0 0 0 0 0 0 0 0 0 0 0 0 0 0 0 0 127 0"/>
<feOffset/>
<feGaussianBlur stdDeviation="22.4018"/>
<feColorMatrix type="matrix" values="0 0 0 0 0.866667 0 0 0 0 1 0 0 0 0 0.0392157 0 0 0 0.5 0"/>
<feBlend mode="normal" in2="BackgroundImageFix" result="effect1_dropShadow"/>
<feBlend mode="normal" in="SourceGraphic" in2="effect1_dropShadow" result="shape"/>
</filter>
<filter id="filter5_d" x="1299.81" y="68.8308" width="111.496" height="109.964" filterUnits="userSpaceOnUse" color-interpolation-filters="sRGB">
<feFlood flood-opacity="0" result="BackgroundImageFix"/>
<feColorMatrix in="SourceAlpha" type="matrix" values="0 0 0 0 0 0 0 0 0 0 0 0 0 0 0 0 0 0 127 0"/>
<feOffset/>
<feGaussianBlur stdDeviation="25.2518"/>
<feColorMatrix type="matrix" values="0 0 0 0 0.866667 0 0 0 0 1 0 0 0 0 0.0392157 0 0 0 0.5 0"/>
<feBlend mode="normal" in2="BackgroundImageFix" result="effect1_dropShadow"/>
<feBlend mode="normal" in="SourceGraphic" in2="effect1_dropShadow" result="shape"/>
</filter>
<filter id="filter6_d" x="1334.54" y="-15.6189" width="182.479" height="179.97" filterUnits="userSpaceOnUse" color-interpolation-filters="sRGB">
<feFlood flood-opacity="0" result="BackgroundImageFix"/>
<feColorMatrix in="SourceAlpha" type="matrix" values="0 0 0 0 0 0 0 0 0 0 0 0 0 0 0 0 0 0 127 0"/>
<feOffset/>
<feGaussianBlur stdDeviation="41.328"/>
<feColorMatrix type="matrix" values="0 0 0 0 0.866667 0 0 0 0 1 0 0 0 0 0.0392157 0 0 0 0.5 0"/>
<feBlend mode="normal" in2="BackgroundImageFix" result="effect1_dropShadow"/>
<feBlend mode="normal" in="SourceGraphic" in2="effect1_dropShadow" result="shape"/>
</filter>
<filter id="filter7_d" x="1337.34" y="5.853" width="97.7137" height="85.6844" filterUnits="userSpaceOnUse" color-interpolation-filters="sRGB">
<feFlood flood-opacity="0" result="BackgroundImageFix"/>
<feColorMatrix in="SourceAlpha" type="matrix" values="0 0 0 0 0 0 0 0 0 0 0 0 0 0 0 0 0 0 127 0"/>
<feOffset/>
<feGaussianBlur stdDeviation="16.5027"/>
<feColorMatrix type="matrix" values="0 0 0 0 0.866667 0 0 0 0 1 0 0 0 0 0.0392157 0 0 0 0.5 0"/>
<feBlend mode="normal" in2="BackgroundImageFix" result="effect1_dropShadow"/>
<feBlend mode="normal" in="SourceGraphic" in2="effect1_dropShadow" result="shape"/>
</filter>
<filter id="filter8_d" x="1337.34" y="5.853" width="97.7137" height="85.6844" filterUnits="userSpaceOnUse" color-interpolation-filters="sRGB">
<feFlood flood-opacity="0" result="BackgroundImageFix"/>
<feColorMatrix in="SourceAlpha" type="matrix" values="0 0 0 0 0 0 0 0 0 0 0 0 0 0 0 0 0 0 127 0"/>
<feOffset/>
<feGaussianBlur stdDeviation="16.5027"/>
<feColorMatrix type="matrix" values="0 0 0 0 0.866667 0 0 0 0 1 0 0 0 0 0.0392157 0 0 0 0.5 0"/>
<feBlend mode="normal" in2="BackgroundImageFix" result="effect1_dropShadow"/>
<feBlend mode="normal" in="SourceGraphic" in2="effect1_dropShadow" result="shape"/>
</filter>
<filter id="filter9_d" x="1346.5" y="75.8894" width="121.379" height="106.435" filterUnits="userSpaceOnUse" color-interpolation-filters="sRGB">
<feFlood flood-opacity="0" result="BackgroundImageFix"/>
<feColorMatrix in="SourceAlpha" type="matrix" values="0 0 0 0 0 0 0 0 0 0 0 0 0 0 0 0 0 0 127 0"/>
<feOffset/>
<feGaussianBlur stdDeviation="20.4996"/>
<feColorMatrix type="matrix" values="0 0 0 0 0.866667 0 0 0 0 1 0 0 0 0 0.0392157 0 0 0 0.5 0"/>
<feBlend mode="normal" in2="BackgroundImageFix" result="effect1_dropShadow"/>
<feBlend mode="normal" in="SourceGraphic" in2="effect1_dropShadow" result="shape"/>
</filter>
<filter id="filter10_d" x="1298.54" y="140.877" width="130.759" height="114.662" filterUnits="userSpaceOnUse" color-interpolation-filters="sRGB">
<feFlood flood-opacity="0" result="BackgroundImageFix"/>
<feColorMatrix in="SourceAlpha" type="matrix" values="0 0 0 0 0 0 0 0 0 0 0 0 0 0 0 0 0 0 127 0"/>
<feOffset/>
<feGaussianBlur stdDeviation="22.0838"/>
<feColorMatrix type="matrix" values="0 0 0 0 0.866667 0 0 0 0 1 0 0 0 0 0.0392157 0 0 0 0.5 0"/>
<feBlend mode="normal" in2="BackgroundImageFix" result="effect1_dropShadow"/>
<feBlend mode="normal" in="SourceGraphic" in2="effect1_dropShadow" result="shape"/>
</filter>
<filter id="filter11_d" x="1301.12" y="53.4535" width="79.1966" height="69.4473" filterUnits="userSpaceOnUse" color-interpolation-filters="sRGB">
<feFlood flood-opacity="0" result="BackgroundImageFix"/>
<feColorMatrix in="SourceAlpha" type="matrix" values="0 0 0 0 0 0 0 0 0 0 0 0 0 0 0 0 0 0 127 0"/>
<feOffset/>
<feGaussianBlur stdDeviation="13.3754"/>
<feColorMatrix type="matrix" values="0 0 0 0 0.866667 0 0 0 0 1 0 0 0 0 0.0392157 0 0 0 0.5 0"/>
<feBlend mode="normal" in2="BackgroundImageFix" result="effect1_dropShadow"/>
<feBlend mode="normal" in="SourceGraphic" in2="effect1_dropShadow" result="shape"/>
</filter>
<filter id="filter12_d" x="1289.65" y="-3.04395" width="136.279" height="136.279" filterUnits="userSpaceOnUse" color-interpolation-filters="sRGB">
<feFlood flood-opacity="0" result="BackgroundImageFix"/>
<feColorMatrix in="SourceAlpha" type="matrix" values="0 0 0 0 0 0 0 0 0 0 0 0 0 0 0 0 0 0 127 0"/>
<feOffset/>
<feGaussianBlur stdDeviation="22.79"/>
<feColorMatrix type="matrix" values="0 0 0 0 1 0 0 0 0 1 0 0 0 0 1 0 0 0 0.4 0"/>
<feBlend mode="normal" in2="BackgroundImageFix" result="effect1_dropShadow"/>
<feBlend mode="normal" in="SourceGraphic" in2="effect1_dropShadow" result="shape"/>
</filter>
<filter id="filter13_d" x="1340.13" y="54.2669" width="40.4769" height="36.699" filterUnits="userSpaceOnUse" color-interpolation-filters="sRGB">
<feFlood flood-opacity="0" result="BackgroundImageFix"/>
<feColorMatrix in="SourceAlpha" type="matrix" values="0 0 0 0 0 0 0 0 0 0 0 0 0 0 0 0 0 0 127 0"/>
<feOffset dy="8.93299"/>
<feGaussianBlur stdDeviation="4.4665"/>
<feColorMatrix type="matrix" values="0 0 0 0 0 0 0 0 0 0 0 0 0 0 0 0 0 0 0.52 0"/>
<feBlend mode="normal" in2="BackgroundImageFix" result="effect1_dropShadow"/>
<feBlend mode="normal" in="SourceGraphic" in2="effect1_dropShadow" result="shape"/>
</filter>
<filter id="filter14_d" x="1418.15" y="87.656" width="49.6558" height="49.6558" filterUnits="userSpaceOnUse" color-interpolation-filters="sRGB">
<feFlood flood-opacity="0" result="BackgroundImageFix"/>
<feColorMatrix in="SourceAlpha" type="matrix" values="0 0 0 0 0 0 0 0 0 0 0 0 0 0 0 0 0 0 127 0"/>
<feOffset dy="4.87778"/>
<feGaussianBlur stdDeviation="2.43889"/>
<feColorMatrix type="matrix" values="0 0 0 0 0 0 0 0 0 0 0 0 0 0 0 0 0 0 0.25 0"/>
<feBlend mode="normal" in2="BackgroundImageFix" result="effect1_dropShadow"/>
<feBlend mode="normal" in="SourceGraphic" in2="effect1_dropShadow" result="shape"/>
</filter>
<filter id="filter15_d" x="1388.84" y="53.4644" width="108.284" height="108.284" filterUnits="userSpaceOnUse" color-interpolation-filters="sRGB">
<feFlood flood-opacity="0" result="BackgroundImageFix"/>
<feColorMatrix in="SourceAlpha" type="matrix" values="0 0 0 0 0 0 0 0 0 0 0 0 0 0 0 0 0 0 127 0"/>
<feOffset/>
<feGaussianBlur stdDeviation="17.0958"/>
<feColorMatrix type="matrix" values="0 0 0 0 0 0 0 0 0 1 0 0 0 0 0.819608 0 0 0 0.5 0"/>
<feBlend mode="normal" in2="BackgroundImageFix" result="effect1_dropShadow"/>
<feBlend mode="normal" in="SourceGraphic" in2="effect1_dropShadow" result="shape"/>
</filter>
<filter id="filter16_b" x="1433.97" y="96.0465" width="20.108" height="22.0004" filterUnits="userSpaceOnUse" color-interpolation-filters="sRGB">
<feFlood flood-opacity="0" result="BackgroundImageFix"/>
<feGaussianBlur in="BackgroundImage" stdDeviation="1.70958"/>
<feComposite in2="SourceAlpha" operator="in" result="effect1_backgroundBlur"/>
<feBlend mode="normal" in="SourceGraphic" in2="effect1_backgroundBlur" result="shape"/>
</filter>
<filter id="filter17_d" x="1348.64" y="103.508" width="53.68" height="53.68" filterUnits="userSpaceOnUse" color-interpolation-filters="sRGB">
<feFlood flood-opacity="0" result="BackgroundImageFix"/>
<feColorMatrix in="SourceAlpha" type="matrix" values="0 0 0 0 0 0 0 0 0 0 0 0 0 0 0 0 0 0 127 0"/>
<feOffset dy="4.87778"/>
<feGaussianBlur stdDeviation="2.43889"/>
<feColorMatrix type="matrix" values="0 0 0 0 0 0 0 0 0 0 0 0 0 0 0 0 0 0 0.25 0"/>
<feBlend mode="normal" in2="BackgroundImageFix" result="effect1_dropShadow"/>
<feBlend mode="normal" in="SourceGraphic" in2="effect1_dropShadow" result="shape"/>
</filter>
<filter id="filter18_d" x="1319.33" y="69.3168" width="112.308" height="112.308" filterUnits="userSpaceOnUse" color-interpolation-filters="sRGB">
<feFlood flood-opacity="0" result="BackgroundImageFix"/>
<feColorMatrix in="SourceAlpha" type="matrix" values="0 0 0 0 0 0 0 0 0 0 0 0 0 0 0 0 0 0 127 0"/>
<feOffset/>
<feGaussianBlur stdDeviation="17.0958"/>
<feColorMatrix type="matrix" values="0 0 0 0 0 0 0 0 0 1 0 0 0 0 0.819608 0 0 0 0.5 0"/>
<feBlend mode="normal" in2="BackgroundImageFix" result="effect1_dropShadow"/>
<feBlend mode="normal" in="SourceGraphic" in2="effect1_dropShadow" result="shape"/>
</filter>
<filter id="filter19_b" x="1364.33" y="114.145" width="23.5296" height="21.7726" filterUnits="userSpaceOnUse" color-interpolation-filters="sRGB">
<feFlood flood-opacity="0" result="BackgroundImageFix"/>
<feGaussianBlur in="BackgroundImage" stdDeviation="1.70958"/>
<feComposite in2="SourceAlpha" operator="in" result="effect1_backgroundBlur"/>
<feBlend mode="normal" in="SourceGraphic" in2="effect1_backgroundBlur" result="shape"/>
</filter>
<filter id="filter20_d" x="1280.35" y="41.3168" width="280.472" height="280.472" filterUnits="userSpaceOnUse" color-interpolation-filters="sRGB">
<feFlood flood-opacity="0" result="BackgroundImageFix"/>
<feColorMatrix in="SourceAlpha" type="matrix" values="0 0 0 0 0 0 0 0 0 0 0 0 0 0 0 0 0 0 127 0"/>
<feOffset/>
<feGaussianBlur stdDeviation="60.9723"/>
<feColorMatrix type="matrix" values="0 0 0 0 1 0 0 0 0 0.788235 0 0 0 0 0.027451 0 0 0 1 0"/>
<feBlend mode="normal" in2="BackgroundImageFix" result="effect1_dropShadow"/>
<feBlend mode="normal" in="SourceGraphic" in2="effect1_dropShadow" result="shape"/>
</filter>
<filter id="filter21_d" x="1412.89" y="174.529" width="16.4182" height="16.4182" filterUnits="userSpaceOnUse" color-interpolation-filters="sRGB">
<feFlood flood-opacity="0" result="BackgroundImageFix"/>
<feColorMatrix in="SourceAlpha" type="matrix" values="0 0 0 0 0 0 0 0 0 0 0 0 0 0 0 0 0 0 127 0"/>
<feOffset dy="1.25825"/>
<feGaussianBlur stdDeviation="0.629126"/>
<feColorMatrix type="matrix" values="0 0 0 0 0 0 0 0 0 0 0 0 0 0 0 0 0 0 0.52 0"/>
<feBlend mode="normal" in2="BackgroundImageFix" result="effect1_dropShadow"/>
<feBlend mode="normal" in="SourceGraphic" in2="effect1_dropShadow" result="shape"/>
</filter>
<filter id="filter22_d" x="1305.78" y="141.131" width="96.8552" height="96.8552" filterUnits="userSpaceOnUse" color-interpolation-filters="sRGB">
<feFlood flood-opacity="0" result="BackgroundImageFix"/>
<feColorMatrix in="SourceAlpha" type="matrix" values="0 0 0 0 0 0 0 0 0 0 0 0 0 0 0 0 0 0 127 0"/>
<feOffset/>
<feGaussianBlur stdDeviation="14.1137"/>
<feColorMatrix type="matrix" values="0 0 0 0 0 0 0 0 0 0.7 0 0 0 0 1 0 0 0 0.67 0"/>
<feBlend mode="normal" in2="BackgroundImageFix" result="effect1_dropShadow"/>
<feBlend mode="normal" in="SourceGraphic" in2="effect1_dropShadow" result="shape"/>
</filter>
<filter id="filter23_d" x="1343.79" y="181.964" width="20.9976" height="20.9976" filterUnits="userSpaceOnUse" color-interpolation-filters="sRGB">
<feFlood flood-opacity="0" result="BackgroundImageFix"/>
<feColorMatrix in="SourceAlpha" type="matrix" values="0 0 0 0 0 0 0 0 0 0 0 0 0 0 0 0 0 0 127 0"/>
<feOffset dy="2.82275"/>
<feGaussianBlur stdDeviation="1.41137"/>
<feColorMatrix type="matrix" values="0 0 0 0 0 0 0 0 0 0 0 0 0 0 0 0 0 0 0.51 0"/>
<feBlend mode="normal" in2="BackgroundImageFix" result="effect1_dropShadow"/>
<feBlend mode="normal" in="SourceGraphic" in2="effect1_dropShadow" result="shape"/>
</filter>
<linearGradient id="paint0_linear" x1="201.816" y1="21.3113" x2="87.2064" y2="-48.4698" gradientUnits="userSpaceOnUse">
<stop stop-color="#1156A5"/>
<stop offset="1" stop-color="#000A62"/>
</linearGradient>
<linearGradient id="paint1_linear" x1="1524.1" y1="231.049" x2="1357.38" y2="160.609" gradientUnits="userSpaceOnUse">
<stop stop-color="#62A6F3"/>
<stop offset="1" stop-color="#0B1DC0"/>
</linearGradient>
<linearGradient id="paint2_linear" x1="171.496" y1="205.298" x2="-16.0539" y2="203.167" gradientUnits="userSpaceOnUse">
<stop stop-color="#C8FFF2"/>
<stop offset="0.302083" stop-color="#11F4BE"/>
<stop offset="1" stop-color="#217BE3"/>
</linearGradient>
<linearGradient id="paint3_linear" x1="133.83" y1="163.554" x2="-12.5287" y2="161.925" gradientUnits="userSpaceOnUse">
<stop stop-color="#C8FFF2"/>
<stop offset="0.302083" stop-color="#11F4BE"/>
<stop offset="1" stop-color="#217BE3"/>
</linearGradient>
<linearGradient id="paint4_linear" x1="1387.84" y1="207.794" x2="1387.84" y2="44.179" gradientUnits="userSpaceOnUse">
<stop stop-color="#00D1FF" stop-opacity="0"/>
<stop offset="1" stop-color="#00D1FF"/>
</linearGradient>
<linearGradient id="paint5_linear" x1="1413.68" y1="87.3176" x2="1404.65" y2="109.492" gradientUnits="userSpaceOnUse">
<stop stop-color="#62A6F3"/>
<stop offset="1" stop-color="#0B1DC0"/>
</linearGradient>
<linearGradient id="paint6_linear" x1="1386.07" y1="214.668" x2="1386.07" y2="65.946" gradientUnits="userSpaceOnUse">
<stop stop-color="#00D1FF" stop-opacity="0"/>
<stop offset="1" stop-color="#00D1FF"/>
</linearGradient>
<linearGradient id="paint7_linear" x1="1385.16" y1="145.358" x2="1385.16" y2="237.58" gradientUnits="userSpaceOnUse">
<stop stop-color="#00D1FF" stop-opacity="0"/>
<stop offset="1" stop-color="#00D1FF"/>
</linearGradient>
<linearGradient id="paint8_linear" x1="1385.16" y1="145.358" x2="1385.16" y2="237.58" gradientUnits="userSpaceOnUse">
<stop stop-color="#00D1FF" stop-opacity="0"/>
<stop offset="1" stop-color="#00D1FF"/>
</linearGradient>
<linearGradient id="paint9_linear" x1="1400.79" y1="81.2032" x2="1400.79" y2="166.552" gradientUnits="userSpaceOnUse">
<stop stop-color="#00D1FF" stop-opacity="0"/>
<stop offset="1" stop-color="#00D1FF"/>
</linearGradient>
<linearGradient id="paint10_linear" x1="1400.79" y1="81.2032" x2="1400.79" y2="166.552" gradientUnits="userSpaceOnUse">
<stop stop-color="#00D1FF" stop-opacity="0"/>
<stop offset="1" stop-color="#00D1FF"/>
</linearGradient>
<linearGradient id="paint11_linear" x1="1369.52" y1="125.31" x2="1369.52" y2="198.629" gradientUnits="userSpaceOnUse">
<stop stop-color="#00D1FF" stop-opacity="0"/>
<stop offset="1" stop-color="#00D1FF"/>
</linearGradient>
<linearGradient id="paint12_linear" x1="1369.52" y1="125.31" x2="1369.52" y2="198.629" gradientUnits="userSpaceOnUse">
<stop stop-color="#00D1FF" stop-opacity="0"/>
<stop offset="1" stop-color="#00D1FF"/>
</linearGradient>
<linearGradient id="paint13_linear" x1="1432.05" y1="156.195" x2="1432.05" y2="193.474" gradientUnits="userSpaceOnUse">
<stop stop-color="#00D1FF" stop-opacity="0"/>
<stop offset="1" stop-color="#00D1FF"/>
</linearGradient>
<linearGradient id="paint14_linear" x1="1432.05" y1="156.195" x2="1432.05" y2="193.474" gradientUnits="userSpaceOnUse">
<stop stop-color="#00D1FF" stop-opacity="0"/>
<stop offset="1" stop-color="#00D1FF"/>
</linearGradient>
<linearGradient id="paint15_linear" x1="1339.23" y1="110.416" x2="1339.23" y2="156.242" gradientUnits="userSpaceOnUse">
<stop stop-color="#00D1FF" stop-opacity="0"/>
<stop offset="1" stop-color="#00D1FF"/>
</linearGradient>
<linearGradient id="paint16_linear" x1="1339.23" y1="110.416" x2="1339.23" y2="156.242" gradientUnits="userSpaceOnUse">
<stop stop-color="#00D1FF" stop-opacity="0"/>
<stop offset="1" stop-color="#00D1FF"/>
</linearGradient>
<radialGradient id="paint17_radial" cx="0" cy="0" r="1" gradientUnits="userSpaceOnUse" gradientTransform="translate(1434.04 160.516) rotate(103.304) scale(5.37375 7.79375)">
<stop stop-color="#E5FF45"/>
<stop offset="1" stop-color="#FFC907"/>
</radialGradient>
<radialGradient id="paint18_radial" cx="0" cy="0" r="1" gradientUnits="userSpaceOnUse" gradientTransform="translate(6.70769 6.70769) rotate(90) scale(6.70769)">
<stop stop-color="#DDFF0A"/>
<stop offset="1" stop-color="#CDA61B"/>
</radialGradient>
<radialGradient id="paint19_radial" cx="0" cy="0" r="1" gradientUnits="userSpaceOnUse" gradientTransform="translate(5.3205 5.7059) rotate(90) scale(5.7059 5.3205)">
<stop stop-color="#DDFF0A"/>
<stop offset="1" stop-color="#CDA61B"/>
</radialGradient>
<radialGradient id="paint20_radial" cx="0" cy="0" r="1" gradientUnits="userSpaceOnUse" gradientTransform="translate(1355.69 124.404) rotate(76.6964) scale(3.63445 5.27118)">
<stop stop-color="#E5FF45"/>
<stop offset="1" stop-color="#FFC907"/>
</radialGradient>
<radialGradient id="paint21_radial" cx="0" cy="0" r="1" gradientUnits="userSpaceOnUse" gradientTransform="translate(4.5366 4.5366) rotate(90) scale(4.5366)">
<stop stop-color="#DDFF0A"/>
<stop offset="1" stop-color="#CDA61B"/>
</radialGradient>
<radialGradient id="paint22_radial" cx="0" cy="0" r="1" gradientUnits="userSpaceOnUse" gradientTransform="translate(3.59843 3.8591) rotate(90) scale(3.8591 3.59843)">
<stop stop-color="#DDFF0A"/>
<stop offset="1" stop-color="#CDA61B"/>
</radialGradient>
<radialGradient id="paint23_radial" cx="0" cy="0" r="1" gradientUnits="userSpaceOnUse" gradientTransform="translate(1426.01 75.3323) rotate(76.6964) scale(5.94828 8.62701)">
<stop stop-color="#E5FF45"/>
<stop offset="1" stop-color="#FFC907"/>
</radialGradient>
<radialGradient id="paint24_radial" cx="0" cy="0" r="1" gradientUnits="userSpaceOnUse" gradientTransform="translate(7.42478 7.42478) rotate(90) scale(7.42478)">
<stop stop-color="#DDFF0A"/>
<stop offset="1" stop-color="#CDA61B"/>
</radialGradient>
<radialGradient id="paint25_radial" cx="0" cy="0" r="1" gradientUnits="userSpaceOnUse" gradientTransform="translate(5.88933 6.31594) rotate(90) scale(6.31594 5.88933)">
<stop stop-color="#DDFF0A"/>
<stop offset="1" stop-color="#CDA61B"/>
</radialGradient>
<radialGradient id="paint26_radial" cx="0" cy="0" r="1" gradientUnits="userSpaceOnUse" gradientTransform="translate(1385.78 47.398) rotate(-108.023) scale(8.16985 15.5679)">
<stop stop-color="#E5FF45"/>
<stop offset="1" stop-color="#FFC907"/>
</radialGradient>
<radialGradient id="paint27_radial" cx="0" cy="0" r="1" gradientUnits="userSpaceOnUse" gradientTransform="translate(12.4681 12.4681) rotate(90) scale(12.4681)">
<stop stop-color="#DDFF0A"/>
<stop offset="1" stop-color="#CDA61B"/>
</radialGradient>
<radialGradient id="paint28_radial" cx="0" cy="0" r="1" gradientUnits="userSpaceOnUse" gradientTransform="translate(9.88966 10.606) rotate(90) scale(10.606 9.88966)">
<stop stop-color="#DDFF0A"/>
<stop offset="1" stop-color="#CDA61B"/>
</radialGradient>
<radialGradient id="paint29_radial" cx="0" cy="0" r="1" gradientUnits="userSpaceOnUse" gradientTransform="translate(1385.78 47.398) rotate(-108.023) scale(8.16985 15.5679)">
<stop stop-color="#E5FF45"/>
<stop offset="1" stop-color="#FFC907"/>
</radialGradient>
<radialGradient id="paint30_radial" cx="0" cy="0" r="1" gradientUnits="userSpaceOnUse" gradientTransform="translate(12.4681 12.4681) rotate(90) scale(12.4681)">
<stop stop-color="#DDFF0A"/>
<stop offset="1" stop-color="#CDA61B"/>
</radialGradient>
<radialGradient id="paint31_radial" cx="0" cy="0" r="1" gradientUnits="userSpaceOnUse" gradientTransform="translate(9.88966 10.606) rotate(90) scale(10.606 9.88966)">
<stop stop-color="#DDFF0A"/>
<stop offset="1" stop-color="#CDA61B"/>
</radialGradient>
<radialGradient id="paint32_radial" cx="0" cy="0" r="1" gradientUnits="userSpaceOnUse" gradientTransform="translate(1406.66 127.496) rotate(-108.023) scale(10.1485 19.3384)">
<stop stop-color="#E5FF45"/>
<stop offset="1" stop-color="#FFC907"/>
</radialGradient>
<radialGradient id="paint33_radial" cx="0" cy="0" r="1" gradientUnits="userSpaceOnUse" gradientTransform="translate(15.4879 15.4879) rotate(90) scale(15.4879)">
<stop stop-color="#DDFF0A"/>
<stop offset="1" stop-color="#CDA61B"/>
</radialGradient>
<radialGradient id="paint34_radial" cx="0" cy="0" r="1" gradientUnits="userSpaceOnUse" gradientTransform="translate(12.2849 13.1748) rotate(90) scale(13.1748 12.2849)">
<stop stop-color="#DDFF0A"/>
<stop offset="1" stop-color="#CDA61B"/>
</radialGradient>
<radialGradient id="paint35_radial" cx="0" cy="0" r="1" gradientUnits="userSpaceOnUse" gradientTransform="translate(1363.35 196.472) rotate(-108.023) scale(10.9328 20.8328)">
<stop stop-color="#E5FF45"/>
<stop offset="1" stop-color="#FFC907"/>
</radialGradient>
<radialGradient id="paint36_radial" cx="0" cy="0" r="1" gradientUnits="userSpaceOnUse" gradientTransform="translate(16.6848 16.6848) rotate(90) scale(16.6848)">
<stop stop-color="#DDFF0A"/>
<stop offset="1" stop-color="#CDA61B"/>
</radialGradient>
<radialGradient id="paint37_radial" cx="0" cy="0" r="1" gradientUnits="userSpaceOnUse" gradientTransform="translate(13.2343 14.1929) rotate(90) scale(14.1929 13.2343)">
<stop stop-color="#DDFF0A"/>
<stop offset="1" stop-color="#CDA61B"/>
</radialGradient>
<radialGradient id="paint38_radial" cx="0" cy="0" r="1" gradientUnits="userSpaceOnUse" gradientTransform="translate(1340.38 87.1257) rotate(-108.023) scale(6.62165 12.6178)">
<stop stop-color="#E5FF45"/>
<stop offset="1" stop-color="#FFC907"/>
</radialGradient>
<radialGradient id="paint39_radial" cx="0" cy="0" r="1" gradientUnits="userSpaceOnUse" gradientTransform="translate(10.1054 10.1054) rotate(90) scale(10.1054)">
<stop stop-color="#DDFF0A"/>
<stop offset="1" stop-color="#CDA61B"/>
</radialGradient>
<radialGradient id="paint40_radial" cx="0" cy="0" r="1" gradientUnits="userSpaceOnUse" gradientTransform="translate(8.01556 8.59619) rotate(90) scale(8.59619 8.01556)">
<stop stop-color="#DDFF0A"/>
<stop offset="1" stop-color="#CDA61B"/>
</radialGradient>
<linearGradient id="paint41_linear" x1="1386.44" y1="90.4939" x2="1386.44" y2="257.278" gradientUnits="userSpaceOnUse">
<stop stop-color="#00D1FF" stop-opacity="0"/>
<stop offset="1" stop-color="#00D1FF"/>
</linearGradient>
<radialGradient id="paint42_radial" cx="0" cy="0" r="1" gradientUnits="userSpaceOnUse" gradientTransform="translate(1380.35 51.6501) rotate(122.07) scale(42.4891)">
<stop offset="0.170429" stop-color="#E88A8A"/>
<stop offset="0.230477" stop-color="#EA8F8F"/>
<stop offset="0.459486" stop-color="#D34C4C"/>
<stop offset="0.916498" stop-color="#940000"/>
</radialGradient>
<radialGradient id="paint43_radial" cx="0" cy="0" r="1" gradientUnits="userSpaceOnUse" gradientTransform="translate(1379.37 54.2669) rotate(124.842) scale(37.3213 44.808)">
<stop offset="0.00520833" stop-color="#8A5757"/>
<stop offset="0.546821" stop-color="#EFE1E1"/>
<stop offset="1" stop-color="#F69A9A"/>
</radialGradient>
<radialGradient id="paint44_radial" cx="0" cy="0" r="1" gradientUnits="userSpaceOnUse" gradientTransform="translate(1451.76 103.137) rotate(109.772) scale(25.9488)">
<stop stop-color="#00E0FF"/>
<stop offset="1" stop-color="#0011AC"/>
</radialGradient>
<radialGradient id="paint45_radial" cx="0" cy="0" r="1" gradientUnits="userSpaceOnUse" gradientTransform="translate(1455.51 102.339) rotate(129.424) scale(21.4877 29.9308)">
<stop offset="0.0104167" stop-color="white"/>
<stop offset="0.5" stop-color="#DDECFA" stop-opacity="0.953333"/>
<stop offset="0.989583" stop-color="#B5BDC5" stop-opacity="0.82"/>
</radialGradient>
<radialGradient id="paint46_radial" cx="0" cy="0" r="1" gradientUnits="userSpaceOnUse" gradientTransform="translate(1385.14 120.551) rotate(109.772) scale(28.5659)">
<stop stop-color="#00FFD1"/>
<stop offset="1" stop-color="#0011AC"/>
</radialGradient>
<radialGradient id="paint47_radial" cx="0" cy="0" r="1" gradientUnits="userSpaceOnUse" gradientTransform="translate(1390.94 117.564) rotate(133.044) scale(25.4834 31.5888)">
<stop offset="0.015625" stop-color="#B1FFDE"/>
<stop offset="0.534511" stop-color="#81FFCA"/>
<stop offset="0.984375" stop-color="#05B364"/>
</radialGradient>
<radialGradient id="paint48_radial" cx="0" cy="0" r="1" gradientUnits="userSpaceOnUse" gradientTransform="translate(1441.15 170.139) rotate(126.915) scale(37.1541 33.3974)">
<stop offset="0.203314" stop-color="#ECAE80"/>
<stop offset="0.298862" stop-color="#F1A062"/>
<stop offset="0.591827" stop-color="#D98343"/>
<stop offset="1" stop-color="#B13D07"/>
</radialGradient>
<radialGradient id="paint49_radial" cx="0" cy="0" r="1" gradientUnits="userSpaceOnUse" gradientTransform="translate(1437.42 169.188) rotate(139.411) scale(36.9979)">
<stop offset="0.03125" stop-color="#FDF776"/>
<stop offset="0.302083" stop-color="#F6A55A"/>
<stop offset="0.557292" stop-color="#E45B0D"/>
<stop offset="0.557392" stop-color="#D35C19"/>
</radialGradient>
<radialGradient id="paint50_radial" cx="0" cy="0" r="1" gradientUnits="userSpaceOnUse" gradientTransform="translate(1363.1 185.034) rotate(109.772) scale(26.2739)">
<stop stop-color="#BDA6E0"/>
<stop offset="1" stop-color="#43079C"/>
</radialGradient>
<radialGradient id="paint51_radial" cx="0" cy="0" r="1" gradientUnits="userSpaceOnUse" gradientTransform="translate(1365.13 181.964) rotate(135) scale(21.6654)">
<stop stop-color="#AD86E8"/>
<stop offset="1" stop-color="#3E078F"/>
</radialGradient>
<clipPath id="clip0">
<rect width="1584" height="396" fill="white"/>
</clipPath>
</defs>
</svg>
